<svg fill="white" height="512pt" viewBox="-35 0 512 512" width="512pt" xmlns="http://www.w3.org/2000/svg">
  <path d="m341.742188 146.988281c0 8.164063 2.714843 15.703125 7.289062 21.769531-15.832031 2.84375-27.890625 16.710938-27.890625 33.351563v32.039063c0 7.71875 6.277344 13.996093 13.996094 13.996093h85.660156c7.714844 0 13.992187-6.277343 13.992187-13.996093v-32.039063c0-16.640625-12.054687-30.507813-27.890624-33.351563 4.574218-6.066406 7.289062-13.605468 7.289062-21.769531 0-19.972656-16.25-36.222656-36.222656-36.222656s-36.222656 16.25-36.222656 36.222656zm78.046874 55.121094v31.035156h-11.722656v-18.238281c0-4.144531-3.355468-7.5-7.5-7.5-4.144531 0-7.5 3.355469-7.5 7.5v18.238281h-30.203125v-18.238281c0-4.144531-3.355469-7.5-7.5-7.5-4.140625 0-7.5 3.355469-7.5 7.5v18.238281h-11.722656v-31.035156c0-10.417969 8.476563-18.894531 18.898437-18.894531h45.851563c10.421875 0 18.898437 8.476562 18.898437 18.894531zm-41.824218-76.339844c11.703125 0 21.222656 9.519531 21.222656 21.21875 0 11.703125-9.519531 21.222657-21.222656 21.222657s-21.222656-9.519532-21.222656-21.222657c0-11.699219 9.519531-21.21875 21.222656-21.21875zm0 0" />
  <path d="m163.59375 311.621094v32.039062c0 7.714844 6.277344 13.996094 13.996094 13.996094h85.65625c7.71875 0 13.996094-6.28125 13.996094-13.996094v-32.039062c0-16.640625-12.054688-30.511719-27.890626-33.355469 4.574219-6.066406 7.289063-13.605469 7.289063-21.769531 0-19.972656-16.25-36.222656-36.222656-36.222656-19.972657 0-36.222657 16.25-36.222657 36.222656 0 8.164062 2.714844 15.703125 7.289063 21.769531-15.835937 2.84375-27.890625 16.710937-27.890625 33.355469zm56.824219-76.347656c11.703125 0 21.222656 9.523437 21.222656 21.222656 0 11.703125-9.519531 21.222656-21.222656 21.222656s-21.222657-9.519531-21.222657-21.222656c0-11.699219 9.519532-21.222656 21.222657-21.222656zm-41.824219 76.347656c0-10.421875 8.480469-18.898438 18.898438-18.898438h45.851562c10.421875 0 18.898438 8.476563 18.898438 18.898438v31.03125h-11.722657v-18.238282c0-4.144531-3.359375-7.5-7.5-7.5-4.144531 0-7.5 3.355469-7.5 7.5v18.238282h-30.203125v-18.238282c0-4.144531-3.355468-7.5-7.5-7.5-4.144531 0-7.5 3.355469-7.5 7.5v18.238282h-11.722656zm0 0" />
  <path d="m20.042969 137.378906h85.660156c7.714844 0 13.992187-6.277344 13.992187-13.996094v-32.039062c0-16.640625-12.054687-30.511719-27.890624-33.355469 4.574218-6.0625 7.289062-13.601562 7.289062-21.765625 0-19.972656-16.25-36.222656-36.222656-36.222656s-36.222656 16.25-36.222656 36.222656c0 8.164063 2.714843 15.703125 7.289062 21.765625-15.832031 2.847657-27.890625 16.714844-27.890625 33.355469v32.039062c0 7.71875 6.277344 13.996094 13.996094 13.996094zm42.828125-122.378906c11.703125 0 21.222656 9.523438 21.222656 21.222656 0 11.703125-9.519531 21.222656-21.222656 21.222656-11.699219 0-21.222656-9.519531-21.222656-21.222656 0-11.699218 9.523437-21.222656 21.222656-21.222656zm-41.824219 76.34375c0-10.417969 8.480469-18.898438 18.898437-18.898438h45.851563c10.421875 0 18.898437 8.480469 18.898437 18.898438v31.035156h-11.722656v-18.242187c0-4.140625-3.355468-7.5-7.5-7.5-4.144531 0-7.5 3.359375-7.5 7.5v18.242187h-30.203125v-18.242187c0-4.140625-3.355469-7.5-7.5-7.5-4.140625 0-7.5 3.359375-7.5 7.5v18.242187h-11.722656zm0 0" />
  <path d="m7.5 512h427.355469c4.144531 0 7.503906-3.359375 7.503906-7.5 0-4.144531-3.359375-7.5-7.503906-7.5h-.9375v-93.0625c0-4.140625-3.355469-7.5-7.5-7.5-4.140625 0-7.5 3.359375-7.5 7.5v93.0625h-81.90625v-221.128906h81.90625v93.0625c0 4.144531 3.359375 7.503906 7.5 7.503906 4.144531 0 7.5-3.359375 7.5-7.503906v-94.066406c0-7.71875-6.277344-13.996094-13.996094-13.996094h-83.914063c-7.71875 0-13.996093 6.277344-13.996093 13.996094v222.132812h-45.640625v-112.625c0-7.71875-6.277344-13.996094-13.992188-13.996094h-23.699218c-4.140626 0-7.5 3.359375-7.5 7.5 0 4.144532 3.359374 7.5 7.5 7.5h22.691406v111.621094h-81.902344v-111.621094h24.210938c4.140624 0 7.5-3.355468 7.5-7.5 0-4.140625-3.359376-7.5-7.5-7.5h-25.21875c-7.714844 0-13.996094 6.277344-13.996094 13.996094v112.625h-45.636719v-332.898438c0-7.71875-6.28125-13.996093-13.996094-13.996093h-83.917969c-7.71875 0-13.996093 6.277343-13.996093 13.996093v332.925782c-3.871094.296875-6.917969 3.527344-6.917969 7.472656 0 4.140625 3.355469 7.5 7.5 7.5zm14.417969-346.894531h81.90625v331.894531h-81.90625zm0 0" />
</svg>